<mxfile host="app.diagrams.net" modified="2024-04-20T19:00:23.431Z" agent="Mozilla/5.0 (Windows NT 10.0; Win64; x64) AppleWebKit/537.36 (KHTML, like Gecko) Chrome/124.0.0.0 Safari/537.36 Edg/124.0.0.0" etag="oXzhASkpTcOl6ti3pnLP" version="24.2.7" type="github">
  <diagram id="R2lEEEUBdFMjLlhIrx00" name="Page-1">
    <mxGraphModel dx="1895" dy="1125" grid="1" gridSize="10" guides="1" tooltips="1" connect="1" arrows="1" fold="1" page="1" pageScale="1" pageWidth="850" pageHeight="1100" math="0" shadow="0" extFonts="Permanent Marker^https://fonts.googleapis.com/css?family=Permanent+Marker">
      <root>
        <mxCell id="0" />
        <mxCell id="1" parent="0" />
        <mxCell id="sTnMUY-ruMFpIgcUdMvu-33" style="edgeStyle=none;curved=1;rounded=0;orthogonalLoop=1;jettySize=auto;html=1;entryX=0.5;entryY=1;entryDx=0;entryDy=0;fontSize=12;startSize=8;endSize=8;" parent="1" source="sTnMUY-ruMFpIgcUdMvu-3" target="sTnMUY-ruMFpIgcUdMvu-19" edge="1">
          <mxGeometry relative="1" as="geometry" />
        </mxCell>
        <mxCell id="sTnMUY-ruMFpIgcUdMvu-3" value="" style="ellipse;html=1;shape=startState;fillColor=#000000;strokeColor=#ff0000;" parent="1" vertex="1">
          <mxGeometry x="410" y="50" width="30" height="30" as="geometry" />
        </mxCell>
        <mxCell id="sTnMUY-ruMFpIgcUdMvu-44" style="edgeStyle=none;curved=1;rounded=0;orthogonalLoop=1;jettySize=auto;html=1;fontSize=12;startSize=8;endSize=8;" parent="1" source="sTnMUY-ruMFpIgcUdMvu-6" target="sTnMUY-ruMFpIgcUdMvu-34" edge="1">
          <mxGeometry relative="1" as="geometry" />
        </mxCell>
        <mxCell id="sTnMUY-ruMFpIgcUdMvu-6" value="&lt;font style=&quot;font-size: 16px;&quot;&gt;Жү&lt;/font&gt;&lt;span style=&quot;font-size: 16px; background-color: initial;&quot;&gt;йеге кіру&lt;/span&gt;" style="html=1;whiteSpace=wrap;fillColor=none;" parent="1" vertex="1">
          <mxGeometry x="190" y="190" width="110" height="50" as="geometry" />
        </mxCell>
        <mxCell id="sTnMUY-ruMFpIgcUdMvu-47" value="" style="edgeStyle=none;curved=1;rounded=0;orthogonalLoop=1;jettySize=auto;html=1;fontSize=12;startSize=8;endSize=8;" parent="1" source="sTnMUY-ruMFpIgcUdMvu-7" target="sTnMUY-ruMFpIgcUdMvu-10" edge="1">
          <mxGeometry relative="1" as="geometry" />
        </mxCell>
        <mxCell id="sTnMUY-ruMFpIgcUdMvu-7" value="&lt;font style=&quot;font-size: 15px;&quot;&gt;Қажетті бөлімді таңдау&lt;/font&gt;" style="html=1;whiteSpace=wrap;fillColor=none;" parent="1" vertex="1">
          <mxGeometry x="355" y="500" width="110" height="50" as="geometry" />
        </mxCell>
        <mxCell id="sTnMUY-ruMFpIgcUdMvu-8" style="edgeStyle=none;curved=1;rounded=0;orthogonalLoop=1;jettySize=auto;html=1;exitX=0;exitY=0.5;exitDx=0;exitDy=0;fontSize=12;startSize=8;endSize=8;" parent="1" source="sTnMUY-ruMFpIgcUdMvu-7" target="sTnMUY-ruMFpIgcUdMvu-7" edge="1">
          <mxGeometry relative="1" as="geometry" />
        </mxCell>
        <mxCell id="sTnMUY-ruMFpIgcUdMvu-48" style="edgeStyle=none;curved=1;rounded=0;orthogonalLoop=1;jettySize=auto;html=1;fontSize=12;startSize=8;endSize=8;" parent="1" source="sTnMUY-ruMFpIgcUdMvu-10" target="sTnMUY-ruMFpIgcUdMvu-12" edge="1">
          <mxGeometry relative="1" as="geometry" />
        </mxCell>
        <mxCell id="sTnMUY-ruMFpIgcUdMvu-10" value="&lt;font style=&quot;font-size: 14px;&quot;&gt;Қажетті тауар түрін таңдау&lt;/font&gt;" style="html=1;whiteSpace=wrap;" parent="1" vertex="1">
          <mxGeometry x="560" y="500" width="110" height="50" as="geometry" />
        </mxCell>
        <mxCell id="sTnMUY-ruMFpIgcUdMvu-49" style="edgeStyle=none;curved=1;rounded=0;orthogonalLoop=1;jettySize=auto;html=1;fontSize=12;startSize=8;endSize=8;" parent="1" source="sTnMUY-ruMFpIgcUdMvu-12" target="sTnMUY-ruMFpIgcUdMvu-15" edge="1">
          <mxGeometry relative="1" as="geometry" />
        </mxCell>
        <mxCell id="sTnMUY-ruMFpIgcUdMvu-12" value="&lt;font style=&quot;font-size: 13px;&quot;&gt;Тауар туралы ақпарат (бағасы сипаттамасы т.б)&lt;/font&gt;" style="html=1;whiteSpace=wrap;" parent="1" vertex="1">
          <mxGeometry x="550" y="580" width="130" height="60" as="geometry" />
        </mxCell>
        <mxCell id="sTnMUY-ruMFpIgcUdMvu-50" style="edgeStyle=none;curved=1;rounded=0;orthogonalLoop=1;jettySize=auto;html=1;fontSize=12;startSize=8;endSize=8;" parent="1" source="sTnMUY-ruMFpIgcUdMvu-15" target="sTnMUY-ruMFpIgcUdMvu-17" edge="1">
          <mxGeometry relative="1" as="geometry" />
        </mxCell>
        <mxCell id="sTnMUY-ruMFpIgcUdMvu-15" value="&lt;font style=&quot;font-size: 14px;&quot;&gt;В корзину батырмасы&lt;/font&gt;" style="html=1;whiteSpace=wrap;" parent="1" vertex="1">
          <mxGeometry x="560" y="678" width="110" height="50" as="geometry" />
        </mxCell>
        <mxCell id="sTnMUY-ruMFpIgcUdMvu-56" style="edgeStyle=none;curved=1;rounded=0;orthogonalLoop=1;jettySize=auto;html=1;fontSize=12;startSize=8;endSize=8;" parent="1" source="sTnMUY-ruMFpIgcUdMvu-17" target="sTnMUY-ruMFpIgcUdMvu-55" edge="1">
          <mxGeometry relative="1" as="geometry" />
        </mxCell>
        <mxCell id="sTnMUY-ruMFpIgcUdMvu-17" value="&lt;font style=&quot;font-size: 13px;&quot;&gt;Корзинада тапсырыс батырмасы&lt;/font&gt;" style="html=1;whiteSpace=wrap;" parent="1" vertex="1">
          <mxGeometry x="365" y="678" width="120" height="55" as="geometry" />
        </mxCell>
        <mxCell id="sTnMUY-ruMFpIgcUdMvu-40" style="edgeStyle=none;curved=1;rounded=0;orthogonalLoop=1;jettySize=auto;html=1;entryX=0.5;entryY=0;entryDx=0;entryDy=0;fontSize=12;startSize=8;endSize=8;" parent="1" source="sTnMUY-ruMFpIgcUdMvu-19" target="sTnMUY-ruMFpIgcUdMvu-6" edge="1">
          <mxGeometry relative="1" as="geometry" />
        </mxCell>
        <mxCell id="sTnMUY-ruMFpIgcUdMvu-42" style="edgeStyle=none;curved=1;rounded=0;orthogonalLoop=1;jettySize=auto;html=1;fontSize=12;startSize=8;endSize=8;" parent="1" source="sTnMUY-ruMFpIgcUdMvu-19" target="sTnMUY-ruMFpIgcUdMvu-20" edge="1">
          <mxGeometry relative="1" as="geometry" />
        </mxCell>
        <mxCell id="sTnMUY-ruMFpIgcUdMvu-19" value="&lt;font style=&quot;font-size: 14px;&quot;&gt;Жүйеге тіркелген бе?&lt;/font&gt;" style="html=1;whiteSpace=wrap;" parent="1" vertex="1">
          <mxGeometry x="370" y="120" width="110" height="50" as="geometry" />
        </mxCell>
        <mxCell id="sTnMUY-ruMFpIgcUdMvu-26" style="edgeStyle=none;curved=1;rounded=0;orthogonalLoop=1;jettySize=auto;html=1;fontSize=12;startSize=8;endSize=8;" parent="1" source="sTnMUY-ruMFpIgcUdMvu-20" target="sTnMUY-ruMFpIgcUdMvu-25" edge="1">
          <mxGeometry relative="1" as="geometry" />
        </mxCell>
        <mxCell id="sTnMUY-ruMFpIgcUdMvu-20" value="&lt;font style=&quot;font-size: 16px;&quot;&gt;Жүйеге тіркелу&lt;/font&gt;" style="html=1;whiteSpace=wrap;" parent="1" vertex="1">
          <mxGeometry x="580" y="190" width="110" height="50" as="geometry" />
        </mxCell>
        <mxCell id="sTnMUY-ruMFpIgcUdMvu-29" style="edgeStyle=none;curved=1;rounded=0;orthogonalLoop=1;jettySize=auto;html=1;fontSize=12;startSize=8;endSize=8;" parent="1" source="sTnMUY-ruMFpIgcUdMvu-25" target="sTnMUY-ruMFpIgcUdMvu-27" edge="1">
          <mxGeometry relative="1" as="geometry" />
        </mxCell>
        <mxCell id="sTnMUY-ruMFpIgcUdMvu-25" value="&lt;font style=&quot;font-size: 14px;&quot;&gt;Тіркелу формасын толтыру&lt;/font&gt;" style="html=1;whiteSpace=wrap;" parent="1" vertex="1">
          <mxGeometry x="580" y="276" width="110" height="50" as="geometry" />
        </mxCell>
        <mxCell id="sTnMUY-ruMFpIgcUdMvu-54" style="edgeStyle=none;curved=1;rounded=0;orthogonalLoop=1;jettySize=auto;html=1;fontSize=12;startSize=8;endSize=8;" parent="1" source="sTnMUY-ruMFpIgcUdMvu-27" target="sTnMUY-ruMFpIgcUdMvu-6" edge="1">
          <mxGeometry relative="1" as="geometry" />
        </mxCell>
        <mxCell id="sTnMUY-ruMFpIgcUdMvu-27" value="&lt;font style=&quot;font-size: 14px;&quot;&gt;Тіркелу батырмасы&lt;/font&gt;" style="html=1;whiteSpace=wrap;" parent="1" vertex="1">
          <mxGeometry x="580" y="370" width="110" height="50" as="geometry" />
        </mxCell>
        <mxCell id="sTnMUY-ruMFpIgcUdMvu-43" style="edgeStyle=none;curved=1;rounded=0;orthogonalLoop=1;jettySize=auto;html=1;fontSize=12;startSize=8;endSize=8;" parent="1" source="sTnMUY-ruMFpIgcUdMvu-34" target="sTnMUY-ruMFpIgcUdMvu-35" edge="1">
          <mxGeometry relative="1" as="geometry" />
        </mxCell>
        <mxCell id="sTnMUY-ruMFpIgcUdMvu-34" value="&lt;font style=&quot;font-size: 14px;&quot;&gt;Кіру формасын толтыру&lt;/font&gt;" style="html=1;whiteSpace=wrap;" parent="1" vertex="1">
          <mxGeometry x="190" y="276" width="110" height="50" as="geometry" />
        </mxCell>
        <mxCell id="sTnMUY-ruMFpIgcUdMvu-38" style="edgeStyle=none;curved=1;rounded=0;orthogonalLoop=1;jettySize=auto;html=1;fontSize=12;startSize=8;endSize=8;" parent="1" source="sTnMUY-ruMFpIgcUdMvu-35" target="sTnMUY-ruMFpIgcUdMvu-36" edge="1">
          <mxGeometry relative="1" as="geometry" />
        </mxCell>
        <mxCell id="sTnMUY-ruMFpIgcUdMvu-39" style="edgeStyle=none;curved=1;rounded=0;orthogonalLoop=1;jettySize=auto;html=1;fontSize=12;startSize=8;endSize=8;" parent="1" source="sTnMUY-ruMFpIgcUdMvu-35" target="sTnMUY-ruMFpIgcUdMvu-37" edge="1">
          <mxGeometry relative="1" as="geometry" />
        </mxCell>
        <mxCell id="sTnMUY-ruMFpIgcUdMvu-35" value="&lt;font style=&quot;font-size: 13px;&quot;&gt;Деректерді тексеру процесі&lt;/font&gt;" style="html=1;whiteSpace=wrap;" parent="1" vertex="1">
          <mxGeometry x="190" y="360" width="110" height="50" as="geometry" />
        </mxCell>
        <mxCell id="sTnMUY-ruMFpIgcUdMvu-36" value="&lt;font style=&quot;font-size: 14px;&quot;&gt;Деректерді қайтадан енгізеді&lt;/font&gt;" style="html=1;whiteSpace=wrap;" parent="1" vertex="1">
          <mxGeometry x="50" y="420" width="110" height="50" as="geometry" />
        </mxCell>
        <mxCell id="sTnMUY-ruMFpIgcUdMvu-45" style="edgeStyle=none;curved=1;rounded=0;orthogonalLoop=1;jettySize=auto;html=1;fontSize=12;startSize=8;endSize=8;" parent="1" source="sTnMUY-ruMFpIgcUdMvu-37" target="sTnMUY-ruMFpIgcUdMvu-7" edge="1">
          <mxGeometry relative="1" as="geometry" />
        </mxCell>
        <mxCell id="sTnMUY-ruMFpIgcUdMvu-37" value="&lt;font style=&quot;font-size: 15px;&quot;&gt;Жүйеге кіреді&lt;/font&gt;" style="html=1;whiteSpace=wrap;" parent="1" vertex="1">
          <mxGeometry x="355" y="420" width="110" height="50" as="geometry" />
        </mxCell>
        <mxCell id="sTnMUY-ruMFpIgcUdMvu-51" value="иә" style="text;strokeColor=none;align=center;fillColor=none;html=1;verticalAlign=middle;whiteSpace=wrap;rounded=0;fontSize=16;" parent="1" vertex="1">
          <mxGeometry x="280" y="140" width="60" height="30" as="geometry" />
        </mxCell>
        <mxCell id="sTnMUY-ruMFpIgcUdMvu-53" value="жоқ" style="text;strokeColor=none;align=center;fillColor=none;html=1;verticalAlign=middle;whiteSpace=wrap;rounded=0;fontSize=16;" parent="1" vertex="1">
          <mxGeometry x="500" y="140" width="60" height="30" as="geometry" />
        </mxCell>
        <mxCell id="sTnMUY-ruMFpIgcUdMvu-58" style="edgeStyle=none;curved=1;rounded=0;orthogonalLoop=1;jettySize=auto;html=1;fontSize=12;startSize=8;endSize=8;" parent="1" source="sTnMUY-ruMFpIgcUdMvu-55" target="sTnMUY-ruMFpIgcUdMvu-57" edge="1">
          <mxGeometry relative="1" as="geometry" />
        </mxCell>
        <mxCell id="sTnMUY-ruMFpIgcUdMvu-55" value="&lt;font style=&quot;font-size: 14px;&quot;&gt;Тапсырыс формасын толтыру (карта номері, cvv)&lt;/font&gt;" style="html=1;whiteSpace=wrap;" parent="1" vertex="1">
          <mxGeometry x="355" y="780" width="140" height="60" as="geometry" />
        </mxCell>
        <mxCell id="sTnMUY-ruMFpIgcUdMvu-60" style="edgeStyle=none;curved=1;rounded=0;orthogonalLoop=1;jettySize=auto;html=1;entryX=0.5;entryY=1;entryDx=0;entryDy=0;fontSize=12;startSize=8;endSize=8;" parent="1" source="sTnMUY-ruMFpIgcUdMvu-57" target="sTnMUY-ruMFpIgcUdMvu-59" edge="1">
          <mxGeometry relative="1" as="geometry" />
        </mxCell>
        <mxCell id="sTnMUY-ruMFpIgcUdMvu-57" value="&lt;font style=&quot;font-size: 15px;&quot;&gt;Тапсырыс беру&lt;/font&gt;" style="html=1;whiteSpace=wrap;" parent="1" vertex="1">
          <mxGeometry x="370" y="870" width="110" height="50" as="geometry" />
        </mxCell>
        <mxCell id="sTnMUY-ruMFpIgcUdMvu-59" value="" style="ellipse;html=1;shape=endState;fillColor=#000000;strokeColor=#ff0000;" parent="1" vertex="1">
          <mxGeometry x="410" y="980" width="30" height="30" as="geometry" />
        </mxCell>
      </root>
    </mxGraphModel>
  </diagram>
</mxfile>
